<svg width="24" height="24" viewBox="0 0 24 24" fill="none" xmlns="http://www.w3.org/2000/svg">
<path fill-rule="evenodd" clip-rule="evenodd" d="M1.75818 14.4394C1.53871 14.5382 1.35131 14.807 1.29105 15.3014C1.24057 15.7156 1.52077 16.1636 2.04698 16.5423C3.70585 17.7364 6.26048 19.6295 7.81195 20.9703C7.96515 21.1027 8.23076 21.2524 8.63293 21.4057C9.02831 21.5564 9.52018 21.6973 10.0932 21.8271C11.2394 22.0869 12.6593 22.291 14.1751 22.4477C17.204 22.7609 20.5473 22.8782 22.6986 22.8897C23.0534 22.8915 23.3392 23.1416 23.337 23.4482C23.3348 23.7549 23.0455 24.0019 22.6907 24C20.506 23.9883 17.1122 23.8697 14.0224 23.5502C12.4788 23.3906 10.994 23.1792 9.76735 22.9012C9.15396 22.7622 8.59242 22.6038 8.11455 22.4216C7.64348 22.2421 7.21602 22.0256 6.90349 21.7555C5.39762 20.454 2.88356 18.5895 1.22476 17.3955C0.540194 16.9028 -0.101233 16.1251 0.013354 15.185C0.0870885 14.5801 0.356196 13.8185 1.16472 13.4546C1.97777 13.0887 3.03759 13.2588 4.29907 13.8693C5.83047 14.6105 7.16469 15.6374 8.27875 16.4949C8.38684 16.578 8.49285 16.6596 8.59677 16.7392C8.9312 16.9953 9.24062 17.2283 9.52959 17.4312C9.53232 17.2997 9.54892 17.172 9.57492 17.0506C9.66497 16.63 9.87244 16.2555 10.0536 15.9869C10.3961 15.4791 11.0168 15.2537 11.5934 15.2409C13.2519 15.2041 17.803 15.1209 20.1678 15.2571C21.8428 15.3536 22.8705 16.0769 23.4291 16.9606C23.9654 17.8093 24.0526 18.7723 23.976 19.4079C23.9392 19.7128 23.6234 19.9343 23.2705 19.9026C22.9176 19.8708 22.6614 19.5978 22.6981 19.2928C22.7553 18.818 22.6819 18.0947 22.3015 17.4929C21.9434 16.9263 21.2981 16.4351 20.0824 16.365C17.7892 16.2329 13.3036 16.3137 11.6263 16.3509C11.3867 16.3562 11.2322 16.4443 11.1636 16.5461C11.0224 16.7554 10.8912 17.0053 10.8382 17.2526C10.7866 17.4936 10.8146 17.7003 10.9398 17.8775C11.0277 18.002 11.1909 18.1506 11.4975 18.2924C11.5067 18.2963 11.5157 18.3004 11.5247 18.3048C11.6568 18.3641 11.8145 18.422 12.0028 18.4763C12.6566 18.6648 13.6344 18.7952 15.0663 18.7952C15.4211 18.7952 15.7087 19.0437 15.7087 19.3504C15.7087 19.657 15.4211 19.9055 15.0663 19.9055C13.5594 19.9055 12.43 19.7699 11.5962 19.5296C11.3987 19.4726 11.2154 19.4091 11.0462 19.339C10.4865 19.2983 9.94955 19.0584 9.46417 18.7757C8.91832 18.4579 8.33891 18.0253 7.74471 17.5703C7.64201 17.4916 7.53849 17.412 7.43411 17.3318C6.30476 16.4634 5.07366 15.5168 3.67133 14.8381C2.51281 14.2774 1.97313 14.3427 1.75818 14.4394Z" fill="black"/>
<path d="M13.7793 9.93981C13.2879 9.93981 12.8896 9.59558 12.8896 9.17095V8.27694C12.8896 7.38978 13.7176 6.70608 14.6904 6.42312C15.135 6.29381 15.5207 6.11961 15.8474 5.90053C16.5714 5.42532 16.9334 4.7719 16.9334 3.94028V3.66308C16.9334 2.98986 16.6869 2.45525 16.194 2.05924C15.701 1.65004 15.0386 1.44543 14.2067 1.44543C13.3133 1.44543 12.5969 1.66324 12.0578 2.09885C11.7639 2.34328 11.5233 2.62512 11.3361 2.94436C11.0943 3.35684 10.5519 3.61846 10.0509 3.45603C9.61799 3.31567 9.3754 2.90859 9.56218 2.54304C9.65686 2.35775 9.76469 2.17668 9.88567 1.99984C10.163 1.60383 10.5019 1.26063 10.9024 0.970221C11.3183 0.666615 11.8036 0.429009 12.3582 0.257406C12.9127 0.0858019 13.552 0 14.2761 0C15.7087 0 16.841 0.336607 17.6729 1.00982C18.5047 1.68304 18.9207 2.59385 18.9207 3.74228C18.9207 4.37589 18.7897 4.93031 18.5278 5.40552C18.2813 5.86753 17.9578 6.26353 17.5573 6.59354C17.1568 6.92355 16.7023 7.18755 16.194 7.38556C16.0471 7.44277 15.9002 7.49503 15.7533 7.54233C15.1422 7.73908 14.6689 8.21138 14.6689 8.77498V9.17095C14.6689 9.59558 14.2706 9.93981 13.7793 9.93981ZM13.7908 14.2959C13.2979 14.2959 12.9358 14.1903 12.7048 13.9791C12.4891 13.7679 12.3813 13.4907 12.3813 13.1475V12.8901C12.3813 12.5469 12.4891 12.2697 12.7048 12.0585C12.9358 11.8473 13.2979 11.7416 13.7908 11.7416C14.2838 11.7416 14.6381 11.8473 14.8538 12.0585C15.0848 12.2697 15.2004 12.5469 15.2004 12.8901V13.1475C15.2004 13.4907 15.0848 13.7679 14.8538 13.9791C14.6381 14.1903 14.2838 14.2959 13.7908 14.2959Z" fill="black"/>
</svg>
