<svg width="24" height="24" viewBox="0 0 24 24" fill="none" xmlns="http://www.w3.org/2000/svg">
<path d="M23 18.4146C22.5214 14.4023 20.7984 14.4023 17.7352 14.4023C14.6721 14.4023 12.63 14.4023 11.0346 14.4023C10.0108 15.138 9.40487 16.3457 10.556 17.2682M14.8635 18.4145C12.8059 18.2092 11.1986 17.7832 10.556 17.2682M22.0428 23L14.3849 22.4268L11.0345 21.8536L10.972 21.8411C9.13617 21.4747 7.44002 20.6003 6.07661 19.3174L1.46223 14.9755C0.504957 14.4022 0.98365 11.3931 3.37676 12.1096C5.29122 12.6828 10.1668 17.2682 10.556 17.2682" stroke="black" stroke-linecap="round"/>
<path d="M13.6346 9.34349C13.2175 9.34349 12.8793 9.05454 12.8793 8.6981V7.94767C12.8793 7.203 13.5822 6.62909 14.4083 6.39157C14.7858 6.28303 15.1132 6.13681 15.3906 5.95291C16.0053 5.55402 16.3127 5.00554 16.3127 4.30748V4.07479C16.3127 3.5097 16.1034 3.06094 15.6849 2.72853C15.2663 2.38504 14.7039 2.2133 13.9976 2.2133C13.239 2.2133 12.6308 2.39612 12.173 2.76177C11.9234 2.96695 11.7192 3.20353 11.5602 3.4715C11.3549 3.81773 10.8943 4.03734 10.469 3.901C10.1014 3.78318 9.89546 3.44147 10.054 3.13463C10.1344 2.9791 10.226 2.82711 10.3287 2.67867C10.5641 2.34626 10.8519 2.05817 11.192 1.8144C11.5451 1.55956 11.9571 1.36011 12.428 1.21607C12.8989 1.07202 13.4417 1 14.0564 1C15.2729 1 16.2342 1.28255 16.9405 1.84765C17.6468 2.41274 18 3.17729 18 4.14127C18 4.67313 17.8888 5.13851 17.6665 5.5374C17.4572 5.92521 17.1825 6.25762 16.8424 6.53463C16.5024 6.81163 16.1165 7.03324 15.6849 7.19945C15.5602 7.24747 15.4354 7.29134 15.3107 7.33104C14.7918 7.4962 14.39 7.89264 14.39 8.36573V8.6981C14.39 9.05454 14.0518 9.34349 13.6346 9.34349ZM13.6444 13C13.2259 13 12.9185 12.9114 12.7223 12.7341C12.5392 12.5568 12.4476 12.3241 12.4476 12.036V11.8199C12.4476 11.5319 12.5392 11.2992 12.7223 11.1219C12.9185 10.9446 13.2259 10.856 13.6444 10.856C14.063 10.856 14.3638 10.9446 14.5469 11.1219C14.7431 11.2992 14.8412 11.5319 14.8412 11.8199V12.036C14.8412 12.3241 14.7431 12.5568 14.5469 12.7341C14.3638 12.9114 14.063 13 13.6444 13Z" fill="black"/>
</svg>
