<svg width="24" height="24" viewBox="0 0 24 24" fill="none" xmlns="http://www.w3.org/2000/svg">
<path d="M16.0807 6.23943L16.0807 6.23942L16.0791 6.24047C15.7856 6.42871 15.4351 6.58102 15.0247 6.69517C14.5349 6.83146 14.0731 7.06621 13.7301 7.38289C13.3862 7.70048 13.1526 8.11036 13.1526 8.58719V9.4067C13.1526 9.94034 13.6611 10.3115 14.2051 10.3115C14.7491 10.3115 15.2577 9.94034 15.2577 9.4067V9.04374C15.2577 8.6531 15.6106 8.27282 16.1558 8.10494C16.3003 8.06043 16.4447 8.01128 16.5891 7.95751C17.0944 7.76922 17.5484 7.51731 17.9496 7.20116C18.3536 6.88274 18.6807 6.49991 18.9298 6.05369C19.2004 5.58355 19.3323 5.04025 19.3323 4.43042C19.3323 3.31901 18.9075 2.42442 18.0589 1.76752C17.2159 1.11494 16.0826 0.8 14.6812 0.8C13.9728 0.8 13.3403 0.880252 12.7865 1.04418C12.2373 1.20671 11.7523 1.43309 11.3339 1.7252C10.9326 2.00354 10.5917 2.33352 10.3124 2.71505L10.3111 2.71684C10.1903 2.88576 10.0823 3.05911 9.98735 3.23688C9.86246 3.47068 9.88295 3.72139 10.0022 3.92722C10.1187 4.12848 10.3251 4.28223 10.5729 4.35906C11.1481 4.53744 11.7591 4.25244 12.0343 3.80353C12.2007 3.53209 12.415 3.29138 12.6788 3.08133C13.1508 2.71703 13.7896 2.52498 14.6148 2.52498C15.3814 2.52498 15.9678 2.70513 16.3949 3.04427L16.3949 3.04429L16.3974 3.04623C16.8185 3.36982 17.0279 3.80024 17.0279 4.35782V4.61193C17.0279 5.29947 16.7215 5.83713 16.0807 6.23943ZM13.0387 13.9601L13.0386 13.9602L13.0438 13.9647C13.3182 14.2046 13.723 14.3046 14.2162 14.3046C14.706 14.3046 15.1072 14.206 15.369 13.9625C15.6355 13.7283 15.767 13.4185 15.767 13.0519V12.8159C15.767 12.4493 15.6355 12.1394 15.369 11.9052C15.1072 11.6618 14.706 11.5632 14.2162 11.5632C13.723 11.5632 13.3182 11.6631 13.0438 11.903L13.0437 11.9029L13.0387 11.9076C12.7869 12.1434 12.6654 12.4528 12.6654 12.8159V13.0519C12.6654 13.415 12.7869 13.7243 13.0387 13.9601ZM2.43566 15.0515C2.48873 14.635 2.64466 14.4712 2.76401 14.4198C2.89082 14.3652 3.34107 14.277 4.43433 14.7831C5.75711 15.3955 6.92127 16.2509 8.00586 17.0486L8.00847 17.0505C8.1076 17.1234 8.20608 17.1958 8.30382 17.2674C8.87254 17.684 9.43711 18.0876 9.9725 18.3858C10.4389 18.6456 10.9729 18.8781 11.5408 18.9245C11.7023 18.9873 11.8754 19.044 12.0599 19.0949C12.8828 19.3219 13.9849 19.4467 15.4386 19.4467C15.8517 19.4467 16.2542 19.1633 16.2542 18.7378C16.2542 18.3124 15.8517 18.0289 15.4386 18.0289C14.0758 18.0289 13.1585 17.91 12.5558 17.7438C12.384 17.6964 12.2423 17.6465 12.1256 17.5965C12.1162 17.5922 12.1067 17.5881 12.0971 17.5841C11.8276 17.4646 11.7032 17.3478 11.6449 17.2689C11.567 17.1635 11.5419 17.0369 11.5818 16.8586C11.6244 16.6683 11.7338 16.4641 11.8619 16.2825C11.8791 16.2581 11.9559 16.1923 12.1461 16.1883C13.7559 16.1542 18.0462 16.0804 20.2346 16.201C21.3443 16.2621 21.9011 16.6849 22.2054 17.1455C22.5381 17.6489 22.6042 18.2613 22.5539 18.6601C22.5001 19.0873 22.871 19.4077 23.2837 19.4433C23.6946 19.4787 24.1228 19.2328 24.1754 18.8156C24.2534 18.1966 24.1656 17.2632 23.6197 16.437C23.0455 15.5681 21.9993 14.8775 20.3385 14.786C18.063 14.6606 13.6931 14.7372 12.1061 14.7709C11.5167 14.7833 10.8492 15.0035 10.4713 15.5394C10.2904 15.7959 10.0752 16.1641 9.9808 16.586C9.97784 16.5992 9.975 16.6125 9.97227 16.6259C9.77792 16.4898 9.57334 16.3416 9.35676 16.1829C9.25739 16.1102 9.15599 16.0355 9.05237 15.9592L9.04659 15.955C7.98191 15.1711 6.68986 14.2199 5.20396 13.5321C3.97916 12.9651 2.8961 12.7799 2.03711 13.1497C1.16973 13.5231 0.889425 14.3056 0.814402 14.8943C0.689822 15.872 1.38726 16.6472 2.06031 17.1106C3.65008 18.2052 6.0528 19.9099 7.48841 21.0967C7.81355 21.3654 8.24781 21.5733 8.70795 21.7411C9.1773 21.9122 9.7249 22.0597 10.318 22.1882C11.5041 22.4453 12.9356 22.64 14.4185 22.7867C17.3874 23.0803 20.6462 23.1893 22.7442 23.2C23.1573 23.2021 23.5615 22.9209 23.5647 22.4957C23.5678 22.07 23.1671 21.7843 22.7539 21.7822C20.6964 21.7717 17.4989 21.6643 14.6041 21.378C13.1551 21.2347 11.8028 21.0485 10.715 20.8128C10.1711 20.6949 9.70923 20.5679 9.34173 20.434C8.96493 20.2966 8.73503 20.1688 8.61389 20.0686C7.11955 18.8333 4.66478 17.0936 3.07511 15.9991C2.58938 15.6646 2.4019 15.3164 2.43566 15.0515Z" fill="black" stroke="black" stroke-width="0.4"/>
</svg>
