<svg xmlns="http://www.w3.org/2000/svg" viewBox="0 0 375 130.65"><defs><style>.cls-1{fill:#fafafa;}.cls-2{fill:#ffdc00;}</style></defs><g id="Calque_2" data-name="Calque 2"><g id="Calque_1-2" data-name="Calque 1"><path class="cls-1" d="M0,0H29A67.63,67.63,0,0,1,50.06,3.11a41.61,41.61,0,0,1,16.19,9.57A43.25,43.25,0,0,1,76.64,29.12q3.67,10,3.68,23.72T76.64,76.72A45.1,45.1,0,0,1,66.33,93.49a42,42,0,0,1-15.78,9.89,59.77,59.77,0,0,1-20.29,3.28H0ZM27.65,87.19A34.22,34.22,0,0,0,39,85.39a21.35,21.35,0,0,0,8.84-5.81A27.45,27.45,0,0,0,53.57,69a54.72,54.72,0,0,0,2-16.19,53.25,53.25,0,0,0-2-16,26,26,0,0,0-5.72-10.31A20.75,20.75,0,0,0,39,21.1a37.39,37.39,0,0,0-11.36-1.63H24.21V87.19Z"/><path class="cls-1" d="M88.17,0h24.54l3.43,56.76q.17,6.87.33,13.58t.33,13.58h.49q1.3-6.87,2.86-13.58T123,56.76l7.36-29.61h14.56l7,29.61q1.31,6.56,2.78,13.42t2.78,13.74h.65q.33-6.87.41-13.66c0-4.53.19-9,.41-13.5L162.11,0H185L171.76,106.66H146.57l-6.71-33.54q-1-5.07-1.8-10.39t-1.14-10.06h-.49q-.5,4.76-1.23,10.06t-1.72,10.39l-6.38,33.54H102.4Z"/><path class="cls-1" d="M222.63,20.28h-31.9V0h88V20.28h-31.9v86.38H222.63Z"/><rect class="cls-2" x="302.3" y="106.66" width="72.7" height="23.99"/></g></g></svg>