<?xml version="1.0" encoding="UTF-8"?>
<svg id="Calque_1" data-name="Calque 1" xmlns="http://www.w3.org/2000/svg" viewBox="0 0 971.26 296.35">
  <defs>
    <style>
      .cls-1 {
        fill: #fff;
      }

      .cls-2 {
        fill: #ff00c7;
      }
    </style>
  </defs>
  <rect x="4.09" y="2.18" width="967.17" height="294.17"/>
  <rect class="cls-2" x="-21.32" y="101.61" width="1132.59" height="110.1" transform="translate(91.61 -183.93) rotate(20.88)"/>
  <g>
    <path class="cls-1" d="m321.06,224.2c10.71,0,12.1,7.45,12.1,11.64,0,28.86-57.25,58.65-86.58,58.65-64.23,0-102.86-103.8-127.53-103.8-7.91,0-6.52,11.17-6.52,27.93-.46,14.43.93,17.22,10.24,25.6,5.59,5.12,7.91,8.84,7.91,13.03,0,19.08-37.7,39.1-67.96,39.1s-56.79-20.48-56.79-35.38c0-4.65,2.79-8.38,13.03-13.96,11.17-6.52,12.57-13.97,13.5-97.28.93-60.51,1.86-78.2-2.79-82.85-7.91-7.91-25.6-9.31-25.6-23.74C4.09,9.16,98.58,4.97,128.83,4.97c74.01,0,129.86,29.79,129.86,69.35.46,42.36-59.58,84.25-59.58,91.7,0,11.17,58.65,64.7,93.09,64.7,12.1,0,19.08-6.52,28.86-6.52ZM173.98,95.74c0-22.81-24.21-50.74-43.29-50.74-13.96,0-18.62,15.36-18.62,59.11v35.84c0,13.03,6.05,15.83,8.84,15.83,20.95,0,53.06-35.84,53.06-60.04Z"/>
    <path class="cls-1" d="m499.31,249.8c0-12.1-.47-18.62-3.26-18.62-2.33,0-5.12,3.26-9.31,10.71-20.01,35.38-47.94,54.46-78.66,54.46-41.89,0-65.16-47.94-65.16-105.19-.47-71.21,34.91-188.97,106.59-188.97,12.1,0,16.76,3.26,16.76,8.38,0,4.19-2.33,8.38-4.65,11.17-12.57,12.57-32.12,90.3-32.58,134.05,0,12.1-4.19,70.75,22.34,70.75,29.79.47,48.87-92.16,51.2-131.26,2.33-35.38-10.24-30.25-10.24-50.27,0-31.18,55.39-38.63,79.13-38.63s37.24,7.91,37.24,21.41c0,12.1-21.88,21.41-29.32,34.44-5.12,9.31-6.05,52.6-6.05,111.71v36.77c0,19.08,6.98,28.86,21.41,28.86,12.1,0,18.15-8.84,29.79-8.84,7.91,0,12.57,3.72,12.57,13.03,0,6.52-1.86,9.31-25.6,27-22.81,17.22-45.15,25.6-67.03,25.6-29.79,0-45.15-15.36-45.15-46.54Z"/>
    <path class="cls-1" d="m646.84,264.7c0-9.77,7.45-15.83,18.15-19.55,7.91-2.79,19.08-6.05,27-11.17,26.06-18.62,67.03-53.99,67.03-67.03,0-7.45-51.2-85.18-60.04-92.63-13.03-10.7-33.98-5.58-33.98-18.62,0-17.22,72.15-53.53,105.66-53.53,8.38,0,13.03,2.33,13.03,7.91,0,3.72-.47,9.31-1.4,17.22-1.86,16.76,7.91,37.24,28.86,65.63,10.24,14.43,13.96,16.76,18.62,16.76,13.5,0,47.94-32.12,47.94-42.36,0-3.72-5.12-6.52-11.17-10.24-9.77-5.58-14.89-9.77-14.89-16.29,0-16.29,47.48-37.24,84.71-37.24,20.95,0,34.91,6.52,34.91,15.83,0,6.52-6.52,13.5-21.41,28.39l-90.76,92.16c-8.38,8.38,3.26,29.32,8.38,35.84l30.25,39.1c14.43,18.62,16.29,25.13,37.24,25.13,13.5-.47,19.55,2.79,19.55,9.77,0,21.41-39.1,46.54-73.08,46.54-10.24,0-26.06-6.98-38.63-23.27l-42.82-54.92c-6.98-9.31-10.24-12.1-14.89-12.1-14.89,0-38.63,27.93-38.63,46.55,0,5.58,2.33,8.84,2.33,13.5,0,15.36-27,30.25-54.46,30.25s-47.48-15.36-47.48-31.65Z"/>
  </g>
</svg>