<svg width="24" height="24" viewBox="0 0 24 24" fill="none" xmlns="http://www.w3.org/2000/svg">
<g clip-path="url(#clip0_4_64)">
<path fill-rule="evenodd" clip-rule="evenodd" d="M8.00002 8.00376C7.91509 8.00126 7.82984 8 7.74429 8C3.18479 8 0 11.5765 0 15.9884C0.193011 18.9345 1.57579 20.4847 2.003 20.9637C2.06092 21.0286 2.10128 21.0739 2.11872 21.1002C2.16894 21.1761 1.84812 21.4511 1.44391 21.7977C0.671938 22.4595 -0.404189 23.3821 0.219179 23.6761C0.997316 24.0431 4.11598 24.0106 6.39386 23.9869C6.89629 23.9817 7.35781 23.9769 7.74429 23.9769C12.3038 23.9769 16 20.4003 16 15.9884C16 15.9833 16 15.9782 16 15.9731C15.6022 15.9614 15.2115 15.9224 14.8298 15.8581C14.8306 15.9015 14.831 15.9449 14.831 15.9884C14.831 19.7058 11.703 22.7993 7.74429 22.7993C7.33366 22.7993 6.8609 22.8043 6.35297 22.8096L6.35255 22.8096L6.3524 22.8096C5.477 22.8188 4.49716 22.8292 3.55079 22.817C3.03206 22.8103 2.5426 22.7969 2.10925 22.7736L2.1732 22.7189L2.17333 22.7188C2.28651 22.6219 2.40044 22.5245 2.52078 22.4181C2.64415 22.3091 2.79272 22.1741 2.91005 22.0424C2.96224 21.9839 3.06378 21.8655 3.14564 21.7087L3.14679 21.7065C3.18465 21.6342 3.49042 21.05 3.09135 20.447C3.02005 20.3393 2.9086 20.2163 2.87298 20.1771L2.86432 20.1675C2.80393 20.0997 2.73493 20.022 2.65571 19.926C2.49846 19.7355 2.29826 19.4697 2.09534 19.1208C1.6958 18.4339 1.27029 17.399 1.16904 15.9497C1.18732 12.1514 3.89699 9.17755 7.74429 9.17755C7.86096 9.17755 7.97691 9.18024 8.09208 9.18555C8.0322 8.79995 8.0008 8.40533 8.00002 8.00376ZM1.14019 23.7182C1.13182 23.7323 1.13465 23.7305 1.14252 23.7143L1.14019 23.7182Z" fill="black"/>
<path fill-rule="evenodd" clip-rule="evenodd" d="M9.16895 7.98843C9.16895 11.7058 12.297 14.7993 16.2557 14.7993C16.6665 14.7993 17.1394 14.8043 17.6475 14.8096C18.5229 14.8188 19.5028 14.8292 20.4492 14.817C20.9679 14.8103 21.4574 14.7969 21.8907 14.7736C21.8694 14.7554 21.8481 14.7371 21.8268 14.7189C21.7136 14.622 21.5996 14.5245 21.4792 14.4181C21.3559 14.3091 21.2073 14.1741 21.09 14.0424C21.0378 13.9839 20.9362 13.8655 20.8544 13.7087L20.8532 13.7065C20.8153 13.6342 20.5096 13.05 20.9087 12.447C20.9799 12.3393 21.0914 12.2163 21.127 12.1771C21.1308 12.1729 21.1338 12.1696 21.1357 12.1675C21.1961 12.0997 21.2651 12.022 21.3443 11.926C21.5015 11.7355 21.7017 11.4697 21.9047 11.1208C22.3042 10.4339 22.7297 9.39899 22.831 7.94974C22.8127 4.15138 20.103 1.17755 16.2557 1.17755C12.297 1.17755 9.16895 4.27109 9.16895 7.98843ZM24 7.98843C23.807 10.9345 22.4242 12.4847 21.997 12.9637C21.9391 13.0286 21.8987 13.0739 21.8813 13.1002C21.8311 13.1761 22.1519 13.4511 22.5561 13.7977C23.3281 14.4595 24.4042 15.3821 23.7808 15.6761C23.0027 16.0431 19.884 16.0106 17.6061 15.9869C17.1037 15.9817 16.6422 15.9769 16.2557 15.9769C11.6962 15.9769 8 12.4003 8 7.98843C8 3.57654 11.6962 0 16.2557 0C20.8152 0 24 3.57654 24 7.98843ZM22.8598 15.7182C22.8682 15.7323 22.8653 15.7305 22.8575 15.7143C22.8583 15.7156 22.8591 15.7169 22.8598 15.7182Z" fill="black"/>
<path d="M16.3622 9.15604C16.0145 9.15604 15.7327 8.9313 15.7327 8.65407V8.0704C15.7327 7.49121 16.3185 7.04484 17.0069 6.8601C17.3214 6.77568 17.5943 6.66196 17.8255 6.51892C18.3378 6.20867 18.5939 5.78208 18.5939 5.23914V5.05816C18.5939 4.61864 18.4195 4.26961 18.0707 4.01107C17.7219 3.74391 17.2532 3.61033 16.6646 3.61033C16.0324 3.61033 15.5256 3.75253 15.1441 4.03692C14.9362 4.19651 14.766 4.38051 14.6335 4.58894C14.4624 4.85823 14.0786 5.02903 13.7241 4.92299C13.4178 4.83135 13.2462 4.56558 13.3784 4.32693C13.4453 4.20595 13.5216 4.08774 13.6072 3.97229C13.8034 3.71375 14.0432 3.48968 14.3266 3.30008C14.6209 3.10187 14.9643 2.94674 15.3567 2.83471C15.7491 2.72267 16.2014 2.66666 16.7137 2.66666C17.7274 2.66666 18.5285 2.88642 19.1171 3.32594C19.7057 3.76546 20 4.3601 20 5.10987C20 5.52354 19.9073 5.88549 19.722 6.19574C19.5476 6.49737 19.3187 6.75591 19.0353 6.97137C18.752 7.18682 18.4304 7.35918 18.0707 7.48845C17.9668 7.5258 17.8628 7.55992 17.7589 7.5908C17.3265 7.71925 16.9916 8.0276 16.9916 8.39556V8.65407C16.9916 8.9313 16.7098 9.15604 16.3622 9.15604ZM16.3703 12C16.0215 12 15.7654 11.931 15.6019 11.7932C15.4493 11.6553 15.373 11.4743 15.373 11.2502V11.0822C15.373 10.8581 15.4493 10.6771 15.6019 10.5392C15.7654 10.4013 16.0215 10.3324 16.3703 10.3324C16.7191 10.3324 16.9698 10.4013 17.1224 10.5392C17.2859 10.6771 17.3677 10.8581 17.3677 11.0822V11.2502C17.3677 11.4743 17.2859 11.6553 17.1224 11.7932C16.9698 11.931 16.7191 12 16.3703 12Z" fill="black"/>
<path fill-rule="evenodd" clip-rule="evenodd" d="M4 15.3333C4 14.9651 4.31236 14.6667 4.69767 14.6667H9.96899C10.3543 14.6667 10.6667 14.9651 10.6667 15.3333C10.6667 15.7015 10.3543 16 9.96899 16H4.69767C4.31236 16 4 15.7015 4 15.3333Z" fill="black"/>
<path fill-rule="evenodd" clip-rule="evenodd" d="M4 18C4 17.6318 4.31236 17.3333 4.69767 17.3333H9.96899C10.3543 17.3333 10.6667 17.6318 10.6667 18C10.6667 18.3682 10.3543 18.6667 9.96899 18.6667H4.69767C4.31236 18.6667 4 18.3682 4 18Z" fill="black"/>
</g>
<defs>
<clipPath id="clip0_4_64">
<rect width="24" height="24" fill="white"/>
</clipPath>
</defs>
</svg>
