<svg width="24" height="24" viewBox="0 0 24 24" fill="none" xmlns="http://www.w3.org/2000/svg">
<g clip-path="url(#clip0_4_64)">
<path fill-rule="evenodd" clip-rule="evenodd" d="M12 5.47369C8.39561 5.47369 5.47368 8.39562 5.47368 12C5.47368 15.6044 8.39561 18.5263 12 18.5263C15.6044 18.5263 18.5263 15.6044 18.5263 12C18.5263 8.39562 15.6044 5.47369 12 5.47369ZM4.21053 12C4.21053 7.69799 7.69799 4.21053 12 4.21053C16.302 4.21053 19.7895 7.69799 19.7895 12C19.7895 16.302 16.302 19.7895 12 19.7895C7.69799 19.7895 4.21053 16.302 4.21053 12Z" fill="black"/>
<path fill-rule="evenodd" clip-rule="evenodd" d="M12 1.26316C6.07021 1.26316 1.26316 6.07021 1.26316 12C1.26316 17.9298 6.07021 22.7368 12 22.7368C17.9298 22.7368 22.7368 17.9298 22.7368 12C22.7368 6.07021 17.9298 1.26316 12 1.26316ZM0 12C0 5.37258 5.37258 0 12 0C18.6274 0 24 5.37258 24 12C24 18.6274 18.6274 24 12 24C5.37258 24 0 18.6274 0 12Z" fill="black"/>
<path d="M15.3684 12.8421L15.3684 11.1579L23.7895 11.1579L23.7895 12.8421L15.3684 12.8421Z" fill="black"/>
<path d="M0.210526 12.8421L0.210525 11.1579L8.63158 11.1579L8.63158 12.8421L0.210526 12.8421Z" fill="black"/>
<path d="M11.1579 1.05263H12.8421V8.63158H11.1579V1.05263Z" fill="black"/>
<path d="M11.1579 15.3684H12.8421V23.3684H11.1579V15.3684Z" fill="black"/>
</g>
<defs>
<clipPath id="clip0_4_64">
<rect width="24" height="24" fill="white"/>
</clipPath>
</defs>
</svg>
