<svg width="24" height="24" viewBox="0 0 24 24" fill="none" xmlns="http://www.w3.org/2000/svg">
<g clip-path="url(#clip0_4_64)">
<path fill-rule="evenodd" clip-rule="evenodd" d="M19.9285 0.422336C20.5113 0.878588 21.9754 2.0934 23.2123 3.33787C23.8979 4.02767 24.0843 4.7289 23.9676 5.3458C23.8596 5.91617 23.5044 6.34904 23.2006 6.58812L20.9287 9.06455C20.9252 9.06832 20.9217 9.07202 20.9181 9.07565L9.06478 21.0019C9.02343 21.0435 8.97314 21.075 8.91779 21.094L0.505755 23.9794C0.368685 24.0264 0.216979 23.9915 0.113874 23.8892C0.0107699 23.7869 -0.0260373 23.6347 0.0187958 23.4962L2.69535 15.2247C2.71401 15.1671 2.74595 15.1147 2.78856 15.0718L14.8331 2.95315C14.8378 2.94838 14.8427 2.94374 14.8476 2.93923C15.4848 2.36231 16.9323 1.05345 17.6216 0.436977C18.0607 0.0441773 18.5515 -0.0414521 18.9738 0.0162949C19.38 0.0718514 19.7242 0.258524 19.9285 0.422336ZM18.8708 0.778721C18.6367 0.746701 18.3787 0.789311 18.1296 1.01206C17.5355 1.54343 16.3744 2.59249 15.6588 3.23994L20.6367 8.24843L22.661 6.04199C22.6767 6.02484 22.6939 6.00917 22.7125 5.99516C22.9125 5.84425 23.1494 5.55556 23.2163 5.20183C23.278 4.87617 23.2095 4.42325 22.6715 3.88195C21.4626 2.66558 20.0226 1.47079 19.4571 1.0282L19.4529 1.02496C19.3383 0.932717 19.1195 0.812733 18.8708 0.778721ZM20.107 8.80361L17.8756 6.55847L6.4769 18.0273L8.78525 20.195L20.107 8.80361ZM8.06691 20.573L3.23673 16.037L0.982649 23.0029L8.06691 20.573ZM3.60916 15.3343L5.91751 17.502L17.3348 6.0144L15.1034 3.76926L3.60916 15.3343Z" fill="black" stroke="black" stroke-width="0.4" stroke-linejoin="round"/>
</g>
<defs>
<clipPath id="clip0_4_64">
<rect width="24" height="24" fill="white"/>
</clipPath>
</defs>
</svg>
