<svg width="24" height="24" viewBox="0 0 24 24" fill="none" xmlns="http://www.w3.org/2000/svg">
<path fill-rule="evenodd" clip-rule="evenodd" d="M12.4566 0.0401843C11.5308 -0.0407208 10.7633 0.0122601 10.3767 0.0956426C5.87389 1.06692 4.27383 4.51917 4.01063 7.49886C3.95546 8.12338 4.11447 9.26776 4.50183 10.4069C4.8884 11.5438 5.5354 12.7751 6.5315 13.4949C7.26183 14.0227 7.82262 14.6679 8.20181 15.2586C8.59212 15.8666 8.75559 16.362 8.76262 16.5855L8.77566 17H15.1592L15.221 16.6428C15.2613 16.4098 15.4416 15.9985 15.7217 15.5177C16.047 14.9594 16.5124 14.4917 17.0394 14.0041C17.1222 13.9275 17.2068 13.8501 17.2926 13.7717C17.7392 13.3636 18.2163 12.9275 18.6152 12.4306C19.943 10.7763 20.0623 8.85868 19.98 7.87877C19.9288 5.8916 19.401 4.3719 18.5922 3.22155C17.7827 2.06998 16.7096 1.31406 15.6113 0.827382C14.5155 0.34185 13.3897 0.121732 12.4566 0.0401843ZM17.8576 3.70098C18.5593 4.69913 19.0474 6.05794 19.0932 7.91164L19.0935 7.92433L19.0946 7.93697C19.1688 8.79491 19.0609 10.4778 17.9133 11.9076C17.5599 12.3478 17.141 12.7312 16.6948 13.1395C16.6058 13.2209 16.5157 13.3034 16.4248 13.3875C15.8918 13.8806 15.3423 14.4224 14.9479 15.0993C14.7429 15.4513 14.5564 15.8203 14.4426 16.1451H9.58303C9.47908 15.7511 9.25908 15.2803 8.95644 14.8089C8.52684 14.1396 7.89401 13.4109 7.06387 12.811C6.28537 12.2485 5.7115 11.2185 5.34503 10.1408C4.97936 9.0654 4.85316 8.04202 4.89473 7.57135C5.13856 4.81104 6.58067 1.79052 10.5706 0.929885C10.84 0.871767 11.5096 0.81583 12.3764 0.891583C13.2359 0.966693 14.2582 1.16881 15.2405 1.60407C16.2202 2.03819 17.155 2.70163 17.8576 3.70098Z" fill="black"/>
<path fill-rule="evenodd" clip-rule="evenodd" d="M9.31343 16.7826H14.6866C15.0163 16.7826 15.2836 17.0746 15.2836 17.4348V17.5652C15.2836 17.9254 15.0163 18.2174 14.6866 18.2174H9.31343C8.98371 18.2174 8.71642 17.9254 8.71642 17.5652V17.4348C8.71642 17.0746 8.98371 16.7826 9.31343 16.7826ZM14.6866 16C15.412 16 16 16.6424 16 17.4348V17.5652C16 18.3576 15.412 19 14.6866 19H9.31343C8.58804 19 8 18.3576 8 17.5652V17.4348C8 16.6424 8.58804 16 9.31343 16H14.6866Z" fill="black"/>
<path fill-rule="evenodd" clip-rule="evenodd" d="M9.55814 19.5714H14.4419V20.4286H9.55814V19.5714ZM15 19V21H9V19H15Z" fill="black"/>
<path fill-rule="evenodd" clip-rule="evenodd" d="M14.8758 21C14.9566 21.2112 15 21.435 15 21.6667C15 22.9553 13.6569 24 12 24C10.3431 24 9 22.9553 9 21.6667C9 21.435 9.0434 21.2112 9.12423 21L14.8758 21ZM14.0612 21.7778L9.93875 21.7778C10.0134 22.5431 10.8522 23.2222 12 23.2222C13.1478 23.2222 13.9866 22.5431 14.0612 21.7778Z" fill="black"/>
<path fill-rule="evenodd" clip-rule="evenodd" d="M8.12196 4.42771C8.05461 4.42771 8 4.4865 8 4.55902V7.46395C8 7.59948 8.20513 7.6718 8.3045 7.5886C8.36097 7.54133 8.42159 7.49953 8.48567 7.46395C8.56126 7.42198 8.64168 7.38866 8.72578 7.36522C8.72778 7.36466 8.72978 7.36411 8.73179 7.36357C8.82345 7.33858 8.91945 7.3253 9.01833 7.3253C9.66108 7.3253 10.1821 7.88629 10.1821 8.57831C10.1821 9.27033 9.66108 9.83133 9.01833 9.83133C8.91945 9.83133 8.82345 9.81805 8.73179 9.79306C8.72978 9.79252 8.72778 9.79196 8.72578 9.79141C8.64168 9.76796 8.56126 9.73465 8.48567 9.69268C8.42158 9.6571 8.36097 9.6153 8.3045 9.56803C8.20513 9.48483 8 9.55714 8 9.69268V12.5976C8 12.6701 8.05461 12.7289 8.12196 12.7289H10.8269C10.9249 12.7289 10.9852 12.849 10.9425 12.944C10.8952 13.0494 10.8562 13.1628 10.8269 13.2825C10.8084 13.3578 10.7938 13.4355 10.7834 13.5152C10.7833 13.5157 10.7832 13.5163 10.7831 13.5168C10.7706 13.6128 10.764 13.7118 10.764 13.8129C10.764 14.7144 11.2851 15 11.9278 15C12.5706 15 13.0916 14.7144 13.0916 13.8129C13.0916 13.7118 13.0851 13.6128 13.0725 13.5168C13.0725 13.5163 13.0724 13.5157 13.0723 13.5152C13.0618 13.4355 13.0472 13.3578 13.0288 13.2825C12.9995 13.1628 12.9605 13.0494 12.9132 12.944C12.8705 12.849 12.9308 12.7289 13.0288 12.7289H15.8076C15.8745 12.7289 15.9289 12.6709 15.9296 12.5988L15.9549 9.7112C15.956 9.5799 15.7716 9.50888 15.6735 9.58688C15.6161 9.63254 15.5547 9.67265 15.4899 9.70648C15.4077 9.74937 15.3201 9.78217 15.2285 9.80336C15.2264 9.80384 15.2243 9.80432 15.2222 9.80479C15.145 9.82218 15.0649 9.83133 14.9828 9.83133C14.3401 9.83133 13.819 9.27033 13.819 8.57831C13.819 7.88629 14.3401 7.3253 14.9828 7.3253C15.0725 7.3253 15.1598 7.33622 15.2437 7.3569C15.2458 7.35741 15.2478 7.35793 15.2499 7.35846C15.341 7.38149 15.428 7.41606 15.5095 7.46064C15.5737 7.49578 15.6344 7.53713 15.6911 7.58397C15.7878 7.66394 15.9734 7.59666 15.9745 7.46537L16 4.56026C16.0006 4.48726 15.9458 4.42771 15.878 4.42771H13.0124C12.9059 4.42771 12.8451 4.28532 12.8991 4.18651C12.9442 4.10403 12.9823 4.01548 13.0124 3.92208C13.041 3.83315 13.0624 3.73983 13.0757 3.64318C13.0759 3.64207 13.0761 3.64095 13.0762 3.63983C13.0864 3.56492 13.0916 3.48803 13.0916 3.40964C13.0916 2.63112 12.5706 2 11.9278 2C11.2851 2 10.764 2.63112 10.764 3.40964C10.764 3.48803 10.7693 3.56492 10.7795 3.63983C10.7796 3.64095 10.7798 3.64207 10.7799 3.64318C10.7932 3.73983 10.8147 3.83315 10.8433 3.92208C10.8734 4.01548 10.9115 4.10403 10.9566 4.18651C11.0106 4.28532 10.9498 4.42771 10.8433 4.42771H8.12196ZM15.2507 6.55772C15.1631 6.54435 15.0737 6.53742 14.9828 6.53742C13.9359 6.53742 13.0872 7.45116 13.0872 8.57831C13.0872 9.70547 13.9359 10.6192 14.9828 10.6192C15.0614 10.6192 15.139 10.614 15.2152 10.604L15.2035 11.941H13.0288C12.3079 11.941 12.0139 12.7517 12.2544 13.2871C12.3177 13.4279 12.3599 13.6081 12.3599 13.8129C12.3599 13.9579 12.3388 14.0388 12.3238 14.078C12.3105 14.1126 12.2984 14.1251 12.2895 14.1328C12.2631 14.1559 12.1668 14.2121 11.9278 14.2121C11.6888 14.2121 11.5926 14.1559 11.5661 14.1328C11.5573 14.1251 11.5451 14.1126 11.5319 14.078C11.5169 14.0388 11.4958 13.9579 11.4958 13.8129C11.4958 13.6081 11.538 13.4279 11.6012 13.2871C11.8418 12.7517 11.5477 11.941 10.8269 11.941H8.73179V10.5959C8.8253 10.6113 8.92101 10.6192 9.01833 10.6192C10.0652 10.6192 10.9139 9.70547 10.9139 8.57831C10.9139 7.45116 10.0652 6.53742 9.01833 6.53742C8.92101 6.53742 8.8253 6.54537 8.73179 6.56068V5.21559H10.8433C11.2324 5.21559 11.5 4.94939 11.6177 4.68991C11.7324 4.43696 11.7549 4.09382 11.5873 3.78707C11.5321 3.68595 11.4958 3.5569 11.4958 3.40964C11.4958 2.97645 11.7679 2.78788 11.9278 2.78788C12.0878 2.78788 12.3599 2.97645 12.3599 3.40964C12.3599 3.5569 12.3236 3.68595 12.2683 3.78707C12.1008 4.09382 12.1233 4.43696 12.238 4.68991C12.3557 4.94939 12.6233 5.21559 13.0124 5.21559H15.2624L15.2507 6.55772Z" fill="black"/>
</svg>
