<svg width="24" height="24" viewBox="0 0 24 24" fill="none" xmlns="http://www.w3.org/2000/svg">
<path fill-rule="evenodd" clip-rule="evenodd" d="M1.75818 14.0411C1.53871 14.144 1.35131 14.4239 1.29105 14.9389C1.24057 15.3704 1.52077 15.837 2.04698 16.2316C3.70585 17.4754 6.26048 19.4474 7.81195 20.8441C7.96515 20.982 8.23076 21.1379 8.63293 21.2976C9.02831 21.4545 9.52018 21.6013 10.0932 21.7366C11.2394 22.0072 12.6593 22.2198 14.1751 22.383C17.204 22.7092 20.5473 22.8314 22.6986 22.8434C23.0534 22.8454 23.3392 23.1059 23.337 23.4253C23.3348 23.7446 23.0455 24.002 22.6907 24C20.506 23.9878 17.1122 23.8642 14.0224 23.5314C12.4788 23.3652 10.994 23.1449 9.76735 22.8554C9.15396 22.7106 8.59242 22.5456 8.11455 22.3559C7.64348 22.1689 7.21602 21.9433 6.90349 21.6619C5.39762 20.3063 2.88356 18.3641 1.22476 17.1203C0.540194 16.607 -0.101233 15.797 0.013354 14.8177C0.0870885 14.1876 0.356196 13.3943 1.16472 13.0152C1.97777 12.634 3.03759 12.8113 4.29907 13.4472C5.83047 14.2193 7.16469 15.289 8.27875 16.1821C8.38684 16.2688 8.49285 16.3538 8.59677 16.4367C8.9312 16.7035 9.24062 16.9461 9.52959 17.1575C9.53232 17.0205 9.54892 16.8875 9.57492 16.761C9.66497 16.323 9.87244 15.9328 10.0536 15.653C10.3961 15.124 11.0168 14.8892 11.5934 14.8759C13.2519 14.8377 17.803 14.7509 20.1678 14.8928C21.8428 14.9934 22.8705 15.7468 23.4291 16.6673C23.9654 17.5514 24.0526 18.5545 23.976 19.2165C23.9392 19.5342 23.6234 19.7649 23.2705 19.7318C22.9176 19.6987 22.6614 19.4144 22.6981 19.0967C22.7553 18.6021 22.6819 17.8486 22.3015 17.2218C21.9434 16.6315 21.2981 16.1199 20.0824 16.0469C17.7892 15.9093 13.3036 15.9935 11.6263 16.0322C11.3867 16.0377 11.2322 16.1295 11.1636 16.2355C11.0224 16.4535 10.8912 16.7139 10.8382 16.9715C10.7866 17.2225 10.8146 17.4378 10.9398 17.6224C11.0277 17.752 11.1909 17.9068 11.4975 18.0546C11.5067 18.0587 11.5157 18.063 11.5247 18.0674C11.6568 18.1292 11.8145 18.1896 12.0028 18.2461C12.6566 18.4425 13.6344 18.5783 15.0663 18.5783C15.4211 18.5783 15.7087 18.8372 15.7087 19.1566C15.7087 19.476 15.4211 19.7349 15.0663 19.7349C13.5594 19.7349 12.43 19.5937 11.5962 19.3433C11.3987 19.284 11.2154 19.2178 11.0462 19.1448C10.4865 19.1023 9.94955 18.8525 9.46417 18.5581C8.91832 18.227 8.33891 17.7764 7.74471 17.3024C7.64201 17.2204 7.53849 17.1375 7.43411 17.0539C6.30476 16.1494 5.07366 15.1634 3.67133 14.4564C2.51281 13.8723 1.97313 13.9403 1.75818 14.0411Z" fill="black"/>
<path d="M13.7793 10.354C13.2879 10.354 12.8896 9.99539 12.8896 9.55307V8.62181C12.8896 7.69769 13.7176 6.98549 14.6904 6.69074C15.135 6.55605 15.5207 6.3746 15.8474 6.14638C16.5714 5.65137 16.9334 4.97073 16.9334 4.10446V3.81571C16.9334 3.11444 16.6869 2.55755 16.194 2.14505C15.701 1.71879 15.0386 1.50566 14.2067 1.50566C13.3133 1.50566 12.5969 1.73254 12.0578 2.1863C11.7639 2.44091 11.5233 2.7345 11.3361 3.06705C11.0943 3.4967 10.5518 3.76922 10.0509 3.60004C9.61799 3.45383 9.3754 3.02978 9.56218 2.649C9.65686 2.45599 9.76469 2.26738 9.88567 2.08317C10.163 1.67066 10.5019 1.31315 10.9024 1.01065C11.3183 0.69439 11.8036 0.446885 12.3582 0.268131C12.9127 0.089377 13.552 0 14.2761 0C15.7087 0 16.841 0.350632 17.6729 1.0519C18.5047 1.75316 18.9207 2.70193 18.9207 3.89821C18.9207 4.55822 18.7897 5.13573 18.5278 5.63074C18.2813 6.11201 17.9578 6.52451 17.5573 6.86827C17.1568 7.21203 16.7023 7.48703 16.194 7.69329C16.0471 7.75289 15.9002 7.80732 15.7533 7.85659C15.1422 8.06154 14.6689 8.55352 14.6689 9.14061V9.55307C14.6689 9.99539 14.2706 10.354 13.7793 10.354ZM13.7908 14.8916C13.2979 14.8916 12.9358 14.7816 12.7048 14.5616C12.4891 14.3416 12.3813 14.0528 12.3813 13.6953V13.4272C12.3813 13.0697 12.4891 12.7809 12.7048 12.5609C12.9358 12.3409 13.2979 12.2309 13.7908 12.2309C14.2838 12.2309 14.6381 12.3409 14.8538 12.5609C15.0848 12.7809 15.2004 13.0697 15.2004 13.4272V13.6953C15.2004 14.0528 15.0848 14.3416 14.8538 14.5616C14.6381 14.7816 14.2838 14.8916 13.7908 14.8916Z" fill="black"/>
</svg>
